<svg xmlns="http://www.w3.org/2000/svg" viewBox="0 0 128 128" width="512" height="512"><circle cx="64" cy="64" r="62" fill="#fcfdfc" stroke="#0b7350" stroke-width="3"/><circle cx="64" cy="64" r="55" fill="none" stroke="#0b7350" stroke-width="1"/><g opacity="0.4"><ellipse cx="64" cy="64" rx="50.00" ry="21.00" transform="rotate(0.00 64 64)" fill="none" stroke="#0b7350" stroke-width="1.1"/><ellipse cx="64" cy="64" rx="50.00" ry="21.00" transform="rotate(10.00 64 64)" fill="none" stroke="#0b7350" stroke-width="1.1"/><ellipse cx="64" cy="64" rx="50.00" ry="21.00" transform="rotate(20.00 64 64)" fill="none" stroke="#0b7350" stroke-width="1.1"/><ellipse cx="64" cy="64" rx="50.00" ry="21.00" transform="rotate(30.00 64 64)" fill="none" stroke="#0b7350" stroke-width="1.1"/><ellipse cx="64" cy="64" rx="50.00" ry="21.00" transform="rotate(40.00 64 64)" fill="none" stroke="#0b7350" stroke-width="1.1"/><ellipse cx="64" cy="64" rx="50.00" ry="21.00" transform="rotate(50.00 64 64)" fill="none" stroke="#0b7350" stroke-width="1.1"/><ellipse cx="64" cy="64" rx="50.00" ry="21.00" transform="rotate(60.00 64 64)" fill="none" stroke="#0b7350" stroke-width="1.1"/><ellipse cx="64" cy="64" rx="50.00" ry="21.00" transform="rotate(70.00 64 64)" fill="none" stroke="#0b7350" stroke-width="1.1"/><ellipse cx="64" cy="64" rx="50.00" ry="21.00" transform="rotate(80.00 64 64)" fill="none" stroke="#0b7350" stroke-width="1.1"/><ellipse cx="64" cy="64" rx="50.00" ry="21.00" transform="rotate(90.00 64 64)" fill="none" stroke="#0b7350" stroke-width="1.1"/><ellipse cx="64" cy="64" rx="50.00" ry="21.00" transform="rotate(100.00 64 64)" fill="none" stroke="#0b7350" stroke-width="1.1"/><ellipse cx="64" cy="64" rx="50.00" ry="21.00" transform="rotate(110.00 64 64)" fill="none" stroke="#0b7350" stroke-width="1.1"/><ellipse cx="64" cy="64" rx="50.00" ry="21.00" transform="rotate(120.00 64 64)" fill="none" stroke="#0b7350" stroke-width="1.1"/><ellipse cx="64" cy="64" rx="50.00" ry="21.00" transform="rotate(130.00 64 64)" fill="none" stroke="#0b7350" stroke-width="1.1"/><ellipse cx="64" cy="64" rx="50.00" ry="21.00" transform="rotate(140.00 64 64)" fill="none" stroke="#0b7350" stroke-width="1.1"/><ellipse cx="64" cy="64" rx="50.00" ry="21.00" transform="rotate(150.00 64 64)" fill="none" stroke="#0b7350" stroke-width="1.1"/><ellipse cx="64" cy="64" rx="50.00" ry="21.00" transform="rotate(160.00 64 64)" fill="none" stroke="#0b7350" stroke-width="1.1"/><ellipse cx="64" cy="64" rx="50.00" ry="21.00" transform="rotate(170.00 64 64)" fill="none" stroke="#0b7350" stroke-width="1.1"/></g><circle cx="64" cy="64" r="27" fill="#fcfdfc" opacity="0.85"/><path d="M22.00 89.20 C 32.08 53.92, 59.80 43.84, 106.00 42.16" fill="none" stroke="#0b7350" stroke-width="5.5" stroke-linecap="round"/><circle cx="27.27" cy="75.82" r="3.71" fill="#0b7350"/><circle cx="41.18" cy="58.98" r="3.71" fill="#0b7350"/><circle cx="65.25" cy="47.45" r="3.71" fill="#0b7350"/><circle cx="106.00" cy="42.16" r="6.19" fill="#0b7350"/></svg>